Coordinates
version=1
nRows=9
nColumns=42
inDegrees=yes

Units are S.I. units (second, meters, Newtons, ...)
If the header above contains a line with 'inDegrees', this indicates whether rotational values are in degrees (yes) or radians (no).

endheader
time	pelvis_tilt	pelvis_list	pelvis_rotation	pelvis_tx	pelvis_ty	pelvis_tz	hip_flexion_r	hip_adduction_r	hip_rotation_r	knee_angle_r	knee_adduction_r	knee_angle_r_beta	ankle_angle_r	subtalar_angle_r	mtp_angle_r	hip_flexion_l	hip_adduction_l	hip_rotation_l	knee_angle_l	knee_adduction_l	knee_angle_l_beta	ankle_angle_l	subtalar_angle_l	mtp_angle_l	lumbar_extension	lumbar_bending	lumbar_rotation	arm_flex_r	arm_add_r	arm_rot_r	elbow_flex_r	pro_sup_r	wrist_flex_r	wrist_dev_r	arm_flex_l	arm_add_l	arm_rot_l	elbow_flex_l	pro_sup_l	wrist_flex_l	wrist_dev_l
      2.98000000	     21.56450627	      1.09438698	      4.22373999	      0.85521956	      0.94285982	     -0.54886834	      4.59663357	     -6.51985738	    -24.64313012	     54.07255332	    -13.59265925	      0.94374409	     13.06979149	     21.13375066	     -7.50167623	    -14.93952552	      6.42747153	     -1.59236072	     22.70041484	     -2.07804299	      0.39619698	     20.46119346	     -7.30422111	     -7.50167623	    -35.37082615	     -2.82341758	      1.49630183	     12.85873217	    -11.89865722	    -14.65438112	     30.60171991	     90.00000001	      0.00000000	      0.00000000	     -0.14573651	    -22.41134670	      5.97841784	     70.67677251	     90.00000001	      0.00000000	      0.00000000
      2.99000000	     21.21767431	      1.15216698	      4.16200454	      0.85883985	      0.94235502	     -0.55021360	      5.60392017	     -6.36125958	    -24.28020126	     52.90942302	    -13.06316008	      0.92344364	     13.00410170	     21.04313200	     -7.50165258	    -14.80803599	      6.64451815	     -1.76209453	     22.73269702	     -2.16595526	      0.39676041	     20.56587699	     -7.13339825	     -7.50165258	    -35.11070864	     -2.95349059	      1.39442813	     12.44358096	    -11.94599469	    -14.65935560	     30.63755742	     90.00000001	      0.00000000	      0.00000000	     -0.22233688	    -22.47790606	      5.91319410	     70.66060929	     90.00000001	      0.00000000	      0.00000000
      3.00000000	     21.22522304	      0.90715910	      3.86861389	      0.86266567	      0.94259463	     -0.55101985	      6.07652431	     -5.62414563	    -23.48786157	     51.16990303	    -12.61528045	      0.89308329	     12.66333186	     22.25994486	     -7.50162701	    -15.31069119	      6.58199818	     -1.94276215	     22.19021971	     -2.29285926	      0.38729240	     20.91323318	     -7.27686385	     -7.50162701	    -35.16713759	     -2.85720330	      1.63135814	     12.22441467	    -12.05102058	    -14.79887858	     30.22293545	     90.00000001	      0.00000000	      0.00000000	     -0.26088525	    -22.40707839	      5.72206185	     70.36909388	     90.00000001	      0.00000000	      0.00000000
      3.01000000	     20.88160573	      0.99113365	      3.82663618	      0.86641019	      0.94203422	     -0.55227137	      6.97492363	     -5.51857895	    -23.22976458	     49.92592397	    -12.05622994	      0.87137176	     12.62127995	     22.23246303	     -7.50160484	    -15.19477449	      6.76899520	     -2.10284957	     22.21822571	     -2.27829576	      0.38778119	     20.92829518	     -7.05701637	     -7.50160484	    -34.89900530	     -3.01004274	      1.52036097	     11.78036235	    -12.07556757	    -14.83184983	     30.26236721	     90.00000001	      0.00000000	      0.00000000	     -0.35185586	    -22.46236380	      5.64526402	     70.38573508	     90.00000001	      0.00000000	      0.00000000
      3.02000000	     21.08604481	      0.66941318	      3.55747245	      0.87045648	      0.94264212	     -0.55291601	      7.00476469	     -4.64903238	    -22.52665770	     47.82919457	    -11.61926721	      0.83477692	     12.25622723	     24.17879710	     -7.50158295	    -16.01598514	      6.53573840	     -2.21189312	     21.47416703	     -2.23580320	      0.37479492	     21.10768800	     -7.12801023	     -7.50158295	    -35.13701806	     -2.81862770	      1.77981521	     11.60792608	    -12.15116263	    -15.16873921	     29.76885666	     90.00000001	      0.00000000	      0.00000000	     -0.40334336	    -22.35601345	      5.41292403	     70.17524794	     90.00000001	      0.00000000	      0.00000000
      3.03000000	     21.13860642	      0.58863062	      3.54649367	      0.87455669	      0.94282980	     -0.55399158	      7.21234089	     -4.18845053	    -22.90955275	     45.90870384	    -11.70980582	      0.80125804	     12.14123959	     26.06267149	     -7.50153188	    -16.57981318	      6.48771011	     -2.09890866	     20.99559013	     -2.13865293	      0.36644218	     21.00431403	     -6.95108247	     -7.50153188	    -35.23543588	     -2.76120159	      1.71323937	     11.32028819	    -12.08090824	    -15.91520031	     29.61971708	     90.00000001	      0.00000000	      0.00000000	     -0.51493635	    -22.35294758	      5.23114513	     70.18218291	     90.00000001	      0.00000000	      0.00000000
      3.04000000	     20.92546380	      0.56913375	      3.36708748	      0.87837723	      0.94243119	     -0.55491841	      7.79996432	     -3.87543629	    -22.43418077	     44.41825330	    -11.18244287	      0.77524477	     12.01842497	     26.79044114	     -7.50150188	    -16.71101181	      6.61739407	     -2.35557481	     20.75617972	     -2.21325951	      0.36226368	     21.23896514	     -6.90112682	     -7.50150188	    -35.08958399	     -2.84944141	      1.77614280	     11.01920108	    -12.12449997	    -16.16191615	     29.38746558	     90.00000001	      0.00000000	      0.00000000	     -0.56039502	    -22.35350913	      5.19385246	     70.16662301	     90.00000001	      0.00000000	      0.00000000
      3.05000000	     20.56333349	      0.70843450	      3.31474065	      0.88227836	      0.94165868	     -0.55610751	      8.58440269	     -3.86507264	    -22.29303289	     43.24910667	    -10.67414624	      0.75483931	     12.04962961	     26.61931224	     -7.50148423	    -16.58774921	      6.88518617	     -2.56797050	     20.76389598	     -2.27204318	      0.36239835	     21.35142968	     -6.75451721	     -7.50148423	    -34.77495379	     -3.03491182	      1.67077324	     10.54754157	    -12.15061449	    -16.20966039	     29.37838033	     90.00000001	      0.00000000	      0.00000000	     -0.67057188	    -22.36715981	      5.16881051	     70.21601826	     90.00000001	      0.00000000	      0.00000000
      3.06000000	     20.76610429	      0.45366887	      3.22388119	      0.88643751	      0.94205406	     -0.55684746	      8.41697270	     -3.10493342	    -22.17231590	     41.13995328	    -10.55639411	      0.71802764	     11.76804151	     28.57404937	     -7.50142600	    -17.34468302	      6.66220623	     -2.71866658	     20.17989203	     -2.28363596	      0.35220556	     21.57476773	     -6.30372503	     -7.50142600	    -35.01415583	     -2.83394547	      1.77431115	     10.40716589	    -12.09562232	    -17.19617267	     28.96293558	     90.00000001	      0.00000000	      0.00000000	     -0.71297608	    -22.31982215	      5.09896816	     70.19175165	     90.00000001	      0.00000000	      0.00000000
